<svg width="34" height="34" viewBox="0 0 34 34" fill="none" xmlns="http://www.w3.org/2000/svg">
<path d="M29.0217 4.97832C25.8094 1.76605 21.5403 0 17 0C12.4597 0 8.19059 1.76605 4.97832 4.97832C1.76605 8.19059 0 12.4597 0 17C0 21.5403 1.76605 25.8094 4.97832 29.0217C8.19059 32.2339 12.4597 34 17 34C21.5403 34 25.8094 32.2339 29.0217 29.0217C32.2339 25.8094 34 21.5403 34 17C34 12.4597 32.2339 8.19059 29.0217 4.97832ZM17 32.1227C8.66339 32.1227 1.8773 25.3366 1.8773 17C1.8773 8.66339 8.66339 1.8773 17 1.8773C25.3366 1.8773 32.1227 8.66339 32.1227 17C32.1227 25.3366 25.3366 32.1227 17 32.1227Z" fill="#7D7F93"/>
<path d="M17.0002 14.1285C19.4407 14.1285 21.4223 12.1399 21.4223 9.70638C21.4223 7.27285 19.4407 5.27734 17.0002 5.27734C14.5597 5.27734 12.5781 7.26589 12.5781 9.69943C12.5781 12.133 14.5597 14.1285 17.0002 14.1285ZM17.0002 7.15464C18.4047 7.15464 19.545 8.29493 19.545 9.69943C19.545 11.1039 18.4047 12.2442 17.0002 12.2442C15.5957 12.2442 14.4554 11.1039 14.4554 9.69943C14.4554 8.29493 15.5957 7.15464 17.0002 7.15464Z" fill="#7D7F93"/>
<path d="M23.7029 19.5023C22.1524 17.2217 19.8996 16.0605 17.0002 16.0605C14.1009 16.0605 11.8481 17.2147 10.2976 19.5023C9.14339 21.1988 8.40638 23.5141 8.11435 26.3648C8.05873 26.8794 8.43419 27.3452 8.94871 27.3939C9.46323 27.4495 9.92908 27.074 9.97775 26.5595C10.5687 20.8372 12.9328 17.9378 17.0002 17.9378C21.0677 17.9378 23.4317 20.8372 24.0227 26.5595C24.0714 27.0393 24.4816 27.4008 24.9544 27.4008C24.9892 27.4008 25.017 27.4008 25.0518 27.3939C25.5663 27.3383 25.9418 26.8794 25.8861 26.3648C25.5941 23.5072 24.8571 21.1988 23.7029 19.5023Z" fill="#7D7F93"/>
</svg>
