<svg width="18" height="18" viewBox="0 0 18 18" fill="none" xmlns="http://www.w3.org/2000/svg">
<path d="M17.7964 3.19802L14.8021 0.203388C14.6719 0.0731346 14.4952 0 14.3111 0C14.127 0 13.9503 0.0731346 13.8202 0.203296L10.8253 3.19811C10.825 3.19848 10.8246 3.19904 10.8241 3.19941L5.08002 8.94353C4.95495 9.06869 4.88237 9.23662 4.877 9.41344L4.78304 12.5019C4.77721 12.6932 4.85071 12.8784 4.98606 13.0139C5.11649 13.1442 5.29313 13.2172 5.47698 13.2172C5.48402 13.2172 5.49115 13.2171 5.49818 13.2168L8.5865 13.1226C8.76322 13.1172 8.93125 13.0446 9.05632 12.9196L17.7964 4.17978C18.0675 3.90881 18.0675 3.46917 17.7964 3.19802ZM14.3108 5.70144L12.2982 3.68913L14.3111 1.67626L16.3235 3.68895L14.3108 5.70144ZM8.26906 11.7432L6.19342 11.8066L6.25656 9.73088L11.3163 4.67108L13.329 6.68348L8.26906 11.7432Z" fill="#7D7F93"/>
<path d="M12.2374 10.8399C11.8539 10.8399 11.5431 11.1507 11.5431 11.5342V16.6114H1.38863V6.45699H6.46584C6.84929 6.45699 7.16016 6.14622 7.16016 5.76268C7.16016 5.37914 6.84929 5.06836 6.46584 5.06836H0.694316C0.310869 5.06836 0 5.37914 0 5.76268V17.3056C0 17.6892 0.310869 17.9999 0.694316 17.9999H12.2373C12.6207 17.9999 12.9316 17.6892 12.9316 17.3056V11.5341C12.9317 11.1507 12.6208 10.8399 12.2374 10.8399Z" fill="#7D7F93"/>
</svg>
